<?xml version="1.0" standalone="no"?><!DOCTYPE svg PUBLIC "-//W3C//DTD SVG 1.1//EN" "http://www.w3.org/Graphics/SVG/1.1/DTD/svg11.dtd">
<svg x="0.0000mm" y="0.0000mm" width="129.1170mm" height="26.4580mm" viewBox="0.0000 0.0000 129.1170 26.4580" version="1.1" xmlns="http://www.w3.org/2000/svg" shape-rendering="crispEdges">
<title>TBarCode - 11.17.1.16949</title>
<desc>BarCode licensed to MEM:TEC-IT Datenverarbeitung GmbH Internal License</desc>
<g fill="rgb(0%,0%,0%)">
</g>
<g fill="rgb(100%,100%,100%)">
<rect x="0.0000" y="0.0000" width="129.1170" height="26.4580" />
</g>
<g fill="rgb(0%,0%,0%)">
</g>
<g fill="rgb(0%,0%,0%)">
<rect x="0.0000" y="0.0000" width="1.0583" height="20.1864" />
<rect x="1.5875" y="0.0000" width="0.5292" height="20.1864" />
<rect x="3.1750" y="0.0000" width="0.5292" height="20.1864" />
<rect x="5.8208" y="0.0000" width="0.5292" height="20.1864" />
<rect x="7.9375" y="0.0000" width="1.0583" height="20.1864" />
<rect x="9.5250" y="0.0000" width="0.5292" height="20.1864" />
<rect x="11.6417" y="0.0000" width="1.0583" height="20.1864" />
<rect x="14.8167" y="0.0000" width="0.5292" height="20.1864" />
<rect x="15.8750" y="0.0000" width="0.5292" height="20.1864" />
<rect x="17.4625" y="0.0000" width="0.5292" height="20.1864" />
<rect x="20.1084" y="0.0000" width="1.0583" height="20.1864" />
<rect x="22.2251" y="0.0000" width="0.5292" height="20.1864" />
<rect x="23.2834" y="0.0000" width="0.5292" height="20.1864" />
<rect x="25.4001" y="0.0000" width="2.1167" height="20.1864" />
<rect x="28.0459" y="0.0000" width="0.5292" height="20.1864" />
<rect x="29.1042" y="0.0000" width="1.0583" height="20.1864" />
<rect x="30.6917" y="0.0000" width="1.0583" height="20.1864" />
<rect x="32.2792" y="0.0000" width="2.1167" height="20.1864" />
<rect x="34.9251" y="0.0000" width="1.0583" height="20.1864" />
<rect x="36.5126" y="0.0000" width="1.0583" height="20.1864" />
<rect x="38.6293" y="0.0000" width="1.0583" height="20.1864" />
<rect x="40.7459" y="0.0000" width="1.5875" height="20.1864" />
<rect x="42.8626" y="0.0000" width="1.0583" height="20.1864" />
<rect x="44.4501" y="0.0000" width="0.5292" height="20.1864" />
<rect x="46.5668" y="0.0000" width="0.5292" height="20.1864" />
<rect x="48.6835" y="0.0000" width="2.1167" height="20.1864" />
<rect x="51.3293" y="0.0000" width="0.5292" height="20.1864" />
<rect x="52.3876" y="0.0000" width="0.5292" height="20.1864" />
<rect x="53.9751" y="0.0000" width="2.1167" height="20.1864" />
<rect x="57.1501" y="0.0000" width="0.5292" height="20.1864" />
<rect x="58.2085" y="0.0000" width="0.5292" height="20.1864" />
<rect x="59.7960" y="0.0000" width="0.5292" height="20.1864" />
<rect x="61.3835" y="0.0000" width="2.1167" height="20.1864" />
<rect x="64.0293" y="0.0000" width="1.0583" height="20.1864" />
<rect x="65.6168" y="0.0000" width="1.0583" height="20.1864" />
<rect x="67.7335" y="0.0000" width="1.0583" height="20.1864" />
<rect x="69.8502" y="0.0000" width="0.5292" height="20.1864" />
<rect x="70.9085" y="0.0000" width="1.0583" height="20.1864" />
<rect x="72.4960" y="0.0000" width="1.5875" height="20.1864" />
<rect x="75.6710" y="0.0000" width="0.5292" height="20.1864" />
<rect x="77.7877" y="0.0000" width="2.1167" height="20.1864" />
<rect x="80.4335" y="0.0000" width="0.5292" height="20.1864" />
<rect x="81.4919" y="0.0000" width="0.5292" height="20.1864" />
<rect x="83.0794" y="0.0000" width="2.1167" height="20.1864" />
<rect x="86.2544" y="0.0000" width="0.5292" height="20.1864" />
<rect x="87.3127" y="0.0000" width="0.5292" height="20.1864" />
<rect x="88.9002" y="0.0000" width="0.5292" height="20.1864" />
<rect x="90.4877" y="0.0000" width="2.1167" height="20.1864" />
<rect x="93.1336" y="0.0000" width="1.0583" height="20.1864" />
<rect x="96.3086" y="0.0000" width="0.5292" height="20.1864" />
<rect x="97.3669" y="0.0000" width="0.5292" height="20.1864" />
<rect x="98.9544" y="0.0000" width="0.5292" height="20.1864" />
<rect x="100.0128" y="0.0000" width="1.0583" height="20.1864" />
<rect x="102.1294" y="0.0000" width="0.5292" height="20.1864" />
<rect x="104.7753" y="0.0000" width="1.0583" height="20.1864" />
<rect x="106.3628" y="0.0000" width="1.0583" height="20.1864" />
<rect x="107.9503" y="0.0000" width="2.1167" height="20.1864" />
<rect x="110.5961" y="0.0000" width="1.0583" height="20.1864" />
<rect x="112.1836" y="0.0000" width="1.0583" height="20.1864" />
<rect x="114.3003" y="0.0000" width="1.0583" height="20.1864" />
<rect x="116.4170" y="0.0000" width="1.5875" height="20.1864" />
<rect x="119.0628" y="0.0000" width="0.5292" height="20.1864" />
<rect x="120.1211" y="0.0000" width="1.0583" height="20.1864" />
<rect x="122.2378" y="0.0000" width="1.0583" height="20.1864" />
<rect x="124.8837" y="0.0000" width="1.5875" height="20.1864" />
<rect x="127.0003" y="0.0000" width="0.5292" height="20.1864" />
<rect x="128.0587" y="0.0000" width="1.0583" height="20.1864" />
</g>
<g fill="rgb(0%,0%,0%)">
<text x="64.5585" y="25.2821" transform="rotate(360 64.5585,25.2821)" text-anchor="middle" font-family="Arial" font-size="5.6444" >Enjoy Your Journey </text>
</g>
</svg>
